name baseline.mot
datacolumns 19
datarows 15
range 7.42330600000000 7.44663700000000
endheader
time	ground_force1_vx	ground_force1_vy	ground_force1_vz	ground_force1_px	ground_force1_py	ground_force1_pz	ground_force2_vx	ground_force2_vy	ground_force2_vz	ground_force2_px	ground_force2_py	ground_force2_pz	ground_torque1_x	ground_torque1_y	ground_torque1_z	ground_torque2_x	ground_torque2_y	ground_torque2_z	
7.42330600000000	73.67809900000000	799.72366899999997	70.48108999999999	0.20750300000000	0.00000000000000	0.15099000000000	0.00000000000000	0.00000000000000	0.00000000000000	0.00000000000000	0.00000000000000	0.00000000000000	0.00000000000000	6.23297700000000	0.00000000000000	0.00000000000000	0.00000000000000	0.00000000000000	
7.42499100000000	72.87768300000000	799.18850099999997	70.17252999999999	0.20668900000000	0.00000000000000	0.15091700000000	0.00000000000000	0.00000000000000	0.00000000000000	0.00000000000000	0.00000000000000	0.00000000000000	0.00000000000000	6.18418200000000	0.00000000000000	0.00000000000000	0.00000000000000	0.00000000000000	
7.42664100000000	72.08661800000000	798.55336899999998	69.86853000000001	0.20588200000000	0.00000000000000	0.15084600000000	0.00000000000000	0.00000000000000	0.00000000000000	0.00000000000000	0.00000000000000	0.00000000000000	0.00000000000000	6.13724800000000	0.00000000000000	0.00000000000000	0.00000000000000	0.00000000000000	
7.42830900000000	71.30483500000000	797.82041000000004	69.56914900000000	0.20507800000000	0.00000000000000	0.15077700000000	0.00000000000000	0.00000000000000	0.00000000000000	0.00000000000000	0.00000000000000	0.00000000000000	0.00000000000000	6.09212000000000	0.00000000000000	0.00000000000000	0.00000000000000	0.00000000000000	
7.42997300000000	70.53221600000001	796.99188700000002	69.27439500000000	0.20427800000000	0.00000000000000	0.15071100000000	0.00000000000000	0.00000000000000	0.00000000000000	0.00000000000000	0.00000000000000	0.00000000000000	0.00000000000000	6.04873300000000	0.00000000000000	0.00000000000000	0.00000000000000	0.00000000000000	
7.43163800000000	69.76860200000000	796.07019700000001	68.98422300000000	0.20347900000000	0.00000000000000	0.15064700000000	0.00000000000000	0.00000000000000	0.00000000000000	0.00000000000000	0.00000000000000	0.00000000000000	0.00000000000000	6.00701000000000	0.00000000000000	0.00000000000000	0.00000000000000	0.00000000000000	
7.43330900000000	69.01379799999999	795.05786799999998	68.69854100000001	0.20267900000000	0.00000000000000	0.15058500000000	0.00000000000000	0.00000000000000	0.00000000000000	0.00000000000000	0.00000000000000	0.00000000000000	0.00000000000000	5.96686600000000	0.00000000000000	0.00000000000000	0.00000000000000	0.00000000000000	
7.43497600000000	68.26757800000000	793.95755799999995	68.41721900000000	0.20187800000000	0.00000000000000	0.15052500000000	0.00000000000000	0.00000000000000	0.00000000000000	0.00000000000000	0.00000000000000	0.00000000000000	0.00000000000000	5.92820500000000	0.00000000000000	0.00000000000000	0.00000000000000	0.00000000000000	
7.43663400000000	67.52969000000000	792.77205500000002	68.14008900000000	0.20107300000000	0.00000000000000	0.15046700000000	0.00000000000000	0.00000000000000	0.00000000000000	0.00000000000000	0.00000000000000	0.00000000000000	0.00000000000000	5.89092700000000	0.00000000000000	0.00000000000000	0.00000000000000	0.00000000000000	
7.43830600000000	66.79986200000000	791.50427500000001	67.86694900000001	0.20026400000000	0.00000000000000	0.15041100000000	0.00000000000000	0.00000000000000	0.00000000000000	0.00000000000000	0.00000000000000	0.00000000000000	0.00000000000000	5.85492400000000	0.00000000000000	0.00000000000000	0.00000000000000	0.00000000000000	
7.43997500000000	66.07780600000000	790.15725699999996	67.59757200000000	0.19945000000000	0.00000000000000	0.15035700000000	0.00000000000000	0.00000000000000	0.00000000000000	0.00000000000000	0.00000000000000	0.00000000000000	0.00000000000000	5.82008600000000	0.00000000000000	0.00000000000000	0.00000000000000	0.00000000000000	
7.44163800000000	65.36322300000000	788.73416299999997	67.33170900000000	0.19862800000000	0.00000000000000	0.15030500000000	0.00000000000000	0.00000000000000	0.00000000000000	0.00000000000000	0.00000000000000	0.00000000000000	0.00000000000000	5.78629900000000	0.00000000000000	0.00000000000000	0.00000000000000	0.00000000000000	
7.44330200000000	64.65580700000000	787.23827200000005	67.06909100000000	0.19779900000000	0.00000000000000	0.15025600000000	0.00000000000000	0.00000000000000	0.00000000000000	0.00000000000000	0.00000000000000	0.00000000000000	0.00000000000000	5.75344800000000	0.00000000000000	0.00000000000000	0.00000000000000	0.00000000000000	
7.44497100000000	63.95525100000000	785.67297299999996	66.80943600000001	0.19696100000000	0.00000000000000	0.15020800000000	0.00000000000000	0.00000000000000	0.00000000000000	0.00000000000000	0.00000000000000	0.00000000000000	0.00000000000000	5.72141800000000	0.00000000000000	0.00000000000000	0.00000000000000	0.00000000000000	
7.44663700000000	63.26124800000000	784.04176399999994	66.55245300000000	0.19611400000000	0.00000000000000	0.15016200000000	0.00000000000000	0.00000000000000	0.00000000000000	0.00000000000000	0.00000000000000	0.00000000000000	0.00000000000000	5.69009500000000	0.00000000000000	0.00000000000000	0.00000000000000	0.00000000000000	
